<svg width="10" height="8" viewBox="0 0 10 8" fill="none" xmlns="http://www.w3.org/2000/svg">
<path d="M9.19212 3.15587C9.25619 3.10307 9.35146 3.15246 9.35146 3.23592V6.71896C9.35146 7.17031 8.99829 7.53649 8.56297 7.53649H1.72941C1.2941 7.53649 0.940918 7.17031 0.940918 6.71896V3.23762C0.940918 3.15246 1.03455 3.10477 1.10026 3.15757C1.46822 3.45393 1.9561 3.83034 3.63164 5.09241C3.97824 5.3547 4.56304 5.90653 5.14619 5.90313C5.73263 5.90824 6.32892 5.34448 6.66239 5.09241C8.33793 3.83034 8.82416 3.45223 9.19212 3.15587ZM5.14619 5.3564C5.52729 5.36321 6.07595 4.85907 6.35192 4.65128C8.53176 3.0111 8.69767 2.86803 9.20034 2.45926C9.29561 2.38262 9.35146 2.26339 9.35146 2.13736V1.81375C9.35146 1.3624 8.99829 0.996216 8.56297 0.996216H1.72941C1.2941 0.996216 0.940918 1.3624 0.940918 1.81375V2.13736C0.940918 2.26339 0.996769 2.38092 1.09204 2.45926C1.59471 2.86633 1.76062 3.0111 3.94046 4.65128C4.21643 4.85907 4.76509 5.36321 5.14619 5.3564Z" fill="white"/>
</svg>
