<svg width="9" height="9" viewBox="0 0 9 9" fill="none" xmlns="http://www.w3.org/2000/svg">
<g clip-path="url(#clip0)">
<path d="M7.95841 6.25251L6.38143 5.43418C6.31406 5.39941 6.23919 5.39209 6.16809 5.4133C6.09698 5.43452 6.0335 5.48313 5.98718 5.55181L5.28881 6.58496C4.19277 5.95924 3.31072 4.89122 2.79395 3.56411L3.6472 2.7185C3.70404 2.66253 3.74427 2.58565 3.7618 2.49952C3.77933 2.41339 3.77321 2.32268 3.74436 2.24114L3.06851 0.331694C3.03684 0.243792 2.98084 0.172024 2.91016 0.128764C2.83947 0.0855033 2.75854 0.0734626 2.6813 0.0947177L1.21697 0.503885C1.14251 0.524704 1.07608 0.575468 1.02851 0.647892C0.980947 0.720315 0.955061 0.810121 0.955078 0.902652C0.955078 5.27562 3.88234 8.81321 7.48827 8.81321C7.56471 8.81327 7.63892 8.78195 7.69876 8.72435C7.7586 8.66676 7.80055 8.5863 7.81775 8.49611L8.15567 6.72305C8.17311 6.62908 8.16295 6.53069 8.12695 6.44481C8.09095 6.35893 8.03135 6.29093 7.95841 6.25251Z" fill="white"/>
</g>
<defs>
<clipPath id="clip0">
<rect width="7.20904" height="8.72889" fill="white" transform="translate(0.955078 0.0830078)"/>
</clipPath>
</defs>
</svg>
